<svg viewBox="0 0 215.881 67.069" height="67.069" width="215.881" xmlns="http://www.w3.org/2000/svg" data-name="Group 27902" data-sanitized-data-name="Group 27902" id="Group_27902">
  <path fill-rule="evenodd" fill="#111" d="M16.734,67.07h5.022V40.242H16.734Zm18.409-.4h4.5V49.741L58.573,67.07V40.644H54.088V57.282L35.142,40.242Zm33.7-6.5a13.82,13.82,0,0,0,8.537,3.01c3.068,0,5.221-1.056,5.221-3.389,0-2.033-1.373-2.83-3.777-3.72L74.93,54.718c-3.588-1.274-6.317-3.136-6.317-7.413,0-4.575,4.131-7.063,9.071-7.063a14.994,14.994,0,0,1,7.939,2.109v4.538a12.732,12.732,0,0,0-7.843-2.8c-2.712,0-4.739,1.012-4.739,3.123,0,1.907,1.272,2.67,3.513,3.437l4.336,1.522c4.2,1.478,6.131,3.768,6.131,7.537,0,4.741-4.171,7.359-9.643,7.359a15.712,15.712,0,0,1-8.537-2.276V60.17Zm29.9,6.9h5.02V40.242h-5.02Zm28.57-4.06c5.659,0,8.683-3.63,8.683-9.36,0-5.772-3.027-9.39-8.683-9.39h-5.6V63.01h5.6ZM117.142,40.242h10.333c7.954,0,13.1,5.24,13.1,13.408s-5.143,13.42-13.1,13.42H117.142Zm48.535,0V44.26h-12.15v6.455h10.9v3.972h-10.9V63.01h12.152v4.06H148.941V40.242ZM183.5,52.39h4.982c2.949,0,4.611-1.618,4.611-4.106s-1.662-4.108-4.611-4.108H183.5v8.216Zm0,3.794V67.07h-4.433V40.242h9.5c5.416,0,8.92,2.79,8.92,8.042,0,4.492-1.945,7.072-6.089,7.734L200.82,67.07h-5.043l-9.126-10.884H183.5ZM14.98,13.812c1.964-.719,3.494-2.876,3.494-5.841,0-4.942-3.494-7.5-9.084-7.5H0V28.056H10.262c5.59,0,9.084-2.741,9.084-7.908a6.664,6.664,0,0,0-4.366-6.336ZM4.41,12.06V4.513H9.348c3.1,0,4.76,1.123,4.76,3.729s-1.66,3.819-4.76,3.819H4.41Zm0,3.865h5.764c3.06,0,4.718,1.526,4.718,4.043,0,2.471-1.66,4.045-4.716,4.045H4.412v-8.09ZM39.833,28.5c6.42,0,10.744-3.865,10.744-11.412V.467H46.035V16.552c0,5.3-2.184,7.776-6.2,7.776s-6.2-2.473-6.2-7.776V.467H29.092V17.046c0,7.594,4.366,11.458,10.742,11.458ZM61.27,26.078A14.98,14.98,0,0,0,69.786,28.5c5.46,0,9.608-2.788,9.608-7.818,0-4-1.92-6.426-6.114-8l-4.322-1.618c-2.228-.807-3.494-1.616-3.494-3.639,0-2.247,2.008-3.324,4.716-3.324A12.223,12.223,0,0,1,78,7.074V2.264A14.18,14.18,0,0,0,70.092.019c-4.934,0-9.04,2.651-9.04,7.5,0,4.538,2.708,6.514,6.288,7.862l3.888,1.438c2.4.943,3.756,1.8,3.756,3.955,0,2.471-2.14,3.595-5.2,3.595a13.3,13.3,0,0,1-8.516-3.19v4.9ZM95.623.467h-4.54V28.054h4.54ZM108.58,28.02h4.376V10.073l18.419,18.375V.425h-4.364V18.067L108.58,0V28.02ZM159.756.474V4.6H147.964v6.64h10.574V15.33H147.964v8.558h11.792v4.175H143.513V.474ZM170.33,26.059a14.974,14.974,0,0,0,8.516,2.427c5.458,0,9.608-2.785,9.608-7.818,0-4-1.922-6.424-6.114-8l-4.324-1.616c-2.228-.809-3.494-1.618-3.494-3.641,0-2.247,2.008-3.324,4.716-3.324a12.234,12.234,0,0,1,7.818,2.966V2.247A14.164,14.164,0,0,0,179.15,0c-4.934,0-9.04,2.651-9.04,7.5,0,4.538,2.708,6.514,6.288,7.862l3.888,1.438c2.4.943,3.756,1.8,3.756,3.955,0,2.471-2.138,3.595-5.2,3.595a13.278,13.278,0,0,1-8.514-3.19v4.9Zm27.427,0a14.98,14.98,0,0,0,8.516,2.427c5.46,0,9.608-2.785,9.608-7.818,0-4-1.922-6.424-6.114-8l-4.324-1.616c-2.226-.809-3.494-1.618-3.494-3.641,0-2.247,2.01-3.324,4.716-3.324a12.23,12.23,0,0,1,7.818,2.966V2.247A14.152,14.152,0,0,0,206.579,0c-4.936,0-9.04,2.651-9.04,7.5,0,4.538,2.708,6.514,6.288,7.862l3.888,1.438c2.4.943,3.756,1.8,3.756,3.955,0,2.471-2.14,3.595-5.2,3.595a13.288,13.288,0,0,1-8.516-3.19v4.9Z" data-name="Path 12759" data-sanitized-data-name="Path 12759" id="Path_12759"></path>
</svg>
